<?xml version="1.0" encoding="UTF-8" standalone="no"?>
<!-- Created with Inkscape (http://www.inkscape.org/) -->

<svg
   xmlns:dc="http://purl.org/dc/elements/1.1/"
   xmlns:cc="http://creativecommons.org/ns#"
   xmlns:rdf="http://www.w3.org/1999/02/22-rdf-syntax-ns#"
   xmlns:svg="http://www.w3.org/2000/svg"
   xmlns="http://www.w3.org/2000/svg"
   xmlns:sodipodi="http://sodipodi.sourceforge.net/DTD/sodipodi-0.dtd"
   xmlns:inkscape="http://www.inkscape.org/namespaces/inkscape"
   width="300"
   height="300"
   viewBox="0 0 79.374998 79.375002"
   version="1.1"
   id="svg8"
   enable-background="new"
   sodipodi:docname="commitment4.svg"
   inkscape:version="0.92.2 (5c3e80d, 2017-08-06)">
  <defs
     id="defs2">
    <filter
       style="color-interpolation-filters:sRGB;"
       inkscape:label="Blend"
       id="filter4709">
      <feBlend
         in2="BackgroundImage"
         mode="multiply"
         result="blend"
         id="feBlend4707" />
    </filter>
  </defs>
  <sodipodi:namedview
     id="base"
     pagecolor="#ffffff"
     bordercolor="#666666"
     borderopacity="1.0"
     inkscape:pageopacity="0.0"
     inkscape:pageshadow="2"
     inkscape:zoom="1.979899"
     inkscape:cx="165.71703"
     inkscape:cy="164.39147"
     inkscape:document-units="mm"
     inkscape:current-layer="g6155"
     showgrid="false"
     units="px"
     inkscape:window-width="1440"
     inkscape:window-height="793"
     inkscape:window-x="0"
     inkscape:window-y="23"
     inkscape:window-maximized="0"
     inkscape:snap-text-baseline="false"
     inkscape:snap-center="false"
     inkscape:measure-start="0,0"
     inkscape:measure-end="0,0"
     inkscape:snap-global="false" />
  <metadata
     id="metadata5">
    <rdf:RDF>
      <cc:Work
         rdf:about="">
        <dc:format>image/svg+xml</dc:format>
        <dc:type
           rdf:resource="http://purl.org/dc/dcmitype/StillImage" />
        <dc:title></dc:title>
      </cc:Work>
    </rdf:RDF>
  </metadata>
  <g
     inkscape:groupmode="layer"
     id="layer3"
     inkscape:label="body"
     style="display:inline">
    <ellipse
       id="path69"
       cx="40.02499"
       cy="75.743538"
       rx="38.35746"
       ry="36.747532"
       style="display:inline;stroke-width:0.24679169;fill:#00598c;fill-opacity:1" />
  </g>
  <g
     style="display:inline"
     inkscape:label="Copie de body"
     id="g104"
     inkscape:groupmode="layer">
    <path
       style="display:inline;fill:#f1f9ff;fill-opacity:1;stroke-width:0.24679169;opacity:1"
       d="M 37.466797,41.082031 C 16.698379,41.71066 -1.0028926,63.058036 4.6540339,83.588224 9.6511764,106.75109 39.609366,117.79815 59.178063,105.24867 77.049174,95.631552 82.121438,69.457867 68.53125,54.179688 61.034735,45.131595 49.14255,40.291337 37.466797,41.082031 Z"
       id="ellipse102"
       inkscape:connector-curvature="0" />
    <rect
       style="opacity:1;fill:#00558c;fill-opacity:1;stroke-width:0.2313714"
       id="rect4856"
       width="76.351196"
       height="2.456845"
       x="1.8898809"
       y="77.107147" />
  </g>
  <g
     style="display:inline"
     inkscape:label="contourfullhead"
     id="g6155"
     inkscape:groupmode="layer">
    <path
       style="opacity:1;fill:#00558c;fill-opacity:1;stroke-width:0.65921605"
       d="M 62.921072,16.115161 C 58.719954,1.3737428 38.46402,-4.4878295 27.035475,5.7169804 15.052176,14.835418 16.591417,35.433187 29.860213,42.593419 c 13.011351,8.560045 32.51708,-0.820867 33.953642,-16.327671 0.523775,-3.385822 0.14983,-6.897303 -0.892783,-10.150587 z"
       id="circle6153"
       inkscape:connector-curvature="0" />
  </g>
  <g
     inkscape:groupmode="layer"
     id="g4653"
     inkscape:label="fullhead"
     style="display:inline">
    <circle
       transform="rotate(72)"
       style="opacity:0.8;fill:#ffffff;fill-opacity:1;stroke-width:0.65921605"
       id="path4651"
       cx="34.842377"
       cy="-32.236343"
       r="20.626524" />
  </g>
  <g
     style="display:none"
     inkscape:label="head5"
     id="g6685"
     inkscape:groupmode="layer">
    <circle
       id="path6683"
       style="opacity:1;fill:#0073ae;fill-opacity:1"
       transform="rotate(-72)"
       cx="-9.2400255"
       cy="46.559574"
       r="20.626524" />
  </g>
  <g
     style="display:none"
     inkscape:label="head1"
     id="g6701"
     inkscape:groupmode="layer">
    <path
       d="M -26.509592,5.5999136 A 20.626524,20.626524 0 0 1 -40.76217,25.216904 L -47.136116,5.5999136 Z"
       sodipodi:end="1.2566371"
       sodipodi:start="0"
       sodipodi:ry="20.626524"
       sodipodi:rx="20.626524"
       sodipodi:cy="5.5999136"
       sodipodi:cx="-47.136116"
       sodipodi:type="arc"
       id="path6699"
       style="opacity:0.9;fill:#0073ae;fill-opacity:1;stroke-width:0.65921605"
       transform="rotate(-144)" />
  </g>
  <g
     inkscape:groupmode="layer"
     id="g6697"
     inkscape:label="head2"
     style="display:none">
    <path
       transform="rotate(144)"
       style="opacity:0.9;fill:#0073ae;fill-opacity:1;stroke-width:0.65921605"
       id="path6695"
       sodipodi:type="arc"
       sodipodi:cx="-19.891695"
       sodipodi:cy="-43.098644"
       sodipodi:rx="20.626524"
       sodipodi:ry="20.626524"
       sodipodi:start="0"
       sodipodi:end="2.5183699"
       d="m 0.73482895,-43.098644 a 20.626524,20.626524 0 0 1 -14.30257995,19.633166 20.626524,20.626524 0 0 1 -23.072717,-7.594391 l 16.748773,-12.038775 z" />
  </g>
  <g
     style="display:none"
     inkscape:label="head3"
     id="g6693"
     inkscape:groupmode="layer">
    <path
       d="m 55.468901,-32.236343 a 20.626524,20.626524 0 0 1 -14.247112,19.615213 20.626524,20.626524 0 0 1 -23.059861,-7.481949 20.626524,20.626524 0 0 1 -0.01689,-24.243277 l 16.697338,12.110013 z"
       sodipodi:end="3.7690752"
       sodipodi:start="0"
       sodipodi:ry="20.626524"
       sodipodi:rx="20.626524"
       sodipodi:cy="-32.236343"
       sodipodi:cx="34.842377"
       sodipodi:type="arc"
       id="path6691"
       style="opacity:0.96300001;fill:#0073ae;fill-opacity:1;stroke-width:0.65921605"
       transform="rotate(72)" />
  </g>
  <g
     inkscape:groupmode="layer"
     id="g6667"
     inkscape:label="head4"
     style="display:inline">
    <path
       style="opacity:0.9;fill:#0073ae;fill-opacity:1;stroke-width:0.65921605"
       id="path6681"
       sodipodi:type="arc"
       sodipodi:cx="41.425472"
       sodipodi:cy="23.175493"
       sodipodi:rx="20.626524"
       sodipodi:ry="20.626524"
       sodipodi:start="0"
       sodipodi:end="5.0306198"
       d="M 62.051996,23.175493 A 20.626524,20.626524 0 0 1 47.779447,42.798961 20.626524,20.626524 0 0 1 24.713617,35.265463 20.626524,20.626524 0 0 1 24.775364,11.000626 20.626524,20.626524 0 0 1 47.879237,3.5846176 L 41.425472,23.175493 Z" />
  </g>
  <g
     inkscape:groupmode="layer"
     id="layer2"
     inkscape:label="smile 1"
     style="display:inline">
    <path
       style="fill:none;stroke-width:0.26458332"
       id="path149"
       d="m 30.397301,26.493435 c 0.159383,0.559853 0.409258,1.097264 0.726464,1.584809 0.173829,0.355434 0.456817,0.620716 0.710102,0.913937 0.183581,0.18509 0.341114,0.401715 0.569241,0.534408 0.232605,0.165278 0.462346,0.326443 0.711779,0.467278 0.227237,0.0932 0.427739,0.228174 0.653661,0.334391 0.296587,0.03299 0.565529,0.167966 0.85544,0.244298 0.287139,0.179112 0.594641,0.268563 0.927783,0.307684 0.272772,0.141454 0.560959,0.238104 0.866299,0.270722 0.188121,0.02416 0.377211,0.0209 0.566224,0.01606 0.221411,-0.04347 0.32939,0.0954 0.460851,0.254291 0.03534,0.05882 0.115295,0.03267 0.210333,0.03533 0.127866,-0.03995 0.276453,-0.02469 0.410396,-0.02352 0.343029,0.03583 0.641588,-0.05366 0.949097,-0.200494 0.390877,-0.153061 0.79062,-0.237505 1.160764,-0.43575 1.38113,-0.504026 2.868113,-1.568304 -2.754138,1.658361 2.285934,-1.330709 7.300034,-4.108405 0.388242,-0.201679 1.13974,-0.868722 2.666021,-1.634524 3.767053,-2.159627 -3.348906,1.90618 -4.46319,2.455828 -3.236714,1.848604 1.211953,-0.79566 2.306246,-2.055918 3.767174,-2.145501 1.304131,-0.06108 -4.451318,2.954814 -3.140969,1.706944 0.126997,-0.08297 0.288081,-0.162261 0.342741,-0.291611 0.174361,-0.157911 0.281951,-0.368826 0.41701,-0.563549 0.198948,-0.238786 0.325874,-0.523991 0.506341,-0.775922 0.101436,-0.215966 0.228253,-0.416886 0.376105,-0.605034 0.05768,-0.194709 0.154199,-0.367413 0.276503,-0.531775 0.07701,-0.188886 0.174368,-0.387951 0.294426,-0.556758 0.03292,-0.201416 0.08095,-0.306567 0.188574,-0.477644 0.12596,-0.126386 0.136051,-0.318365 0.143666,-0.486831 0.04294,-0.09126 0.08738,-0.181797 0.13136,-0.272555 0,0 3.63511,-1.641542 3.63511,-1.641542 v 0 c -0.04615,0.08655 -0.09197,0.17327 -0.136017,0.260913 -0.134673,0.03117 -0.07131,0.396447 -0.122944,0.528191 -0.02638,0.0431 -0.0924,0.206315 -0.132879,0.22678 -0.09667,0.04888 -0.06908,-0.12869 -0.100224,0.161264 -0.02241,0.19826 -0.141689,0.446781 -0.288012,0.575371 -0.02053,0.12255 -0.08256,0.310264 -0.172299,0.403619 -0.01892,0.01969 -0.05987,0.0094 -0.07549,0.03177 -0.02159,0.03094 -0.0159,0.07375 -0.02384,0.110628 -0.05477,0.261501 -0.249621,0.428506 -0.366789,0.648639 -0.124246,0.295714 -0.366136,0.530376 -0.481897,0.835472 -0.08325,0.09389 -0.179763,0.196715 -0.243258,0.306142 -0.03909,0.06737 -0.04023,0.153574 -0.08383,0.218122 -0.01582,0.02344 -0.04662,0.03202 -0.06993,0.04803 -0.14092,0.06367 -0.02474,-0.0145 -0.08378,0.1573 -0.02989,0.08696 -0.190093,0.123714 -0.210786,0.222771 -1.285462,0.662398 -2.30917,1.831118 -3.755266,2.189234 -0.04797,0.02455 -0.176958,0.122735 -0.130572,0.09531 2.998544,-1.772552 4.129911,-3.014755 3.239138,-1.861968 -0.953714,1.100883 -0.165661,0.209791 -3.590049,2.098574 -1.1146,0.614778 2.208157,-1.26696 3.311654,-1.901449 0.282245,-0.162285 -0.482383,0.298032 -0.241583,0.123664 -1.165791,0.666146 -2.332291,1.331055 -3.497376,1.998437 -0.0186,0.01066 -0.07209,0.0463 -0.05353,0.03559 1.120881,-0.647007 2.23851,-1.299646 3.36061,-1.944531 0.07083,-0.04071 -0.259418,0.198191 -0.191013,0.153538 -1.599168,0.919839 -2.610458,1.634283 -4.071511,2.243111 -0.385281,0.146346 -0.790448,0.239556 -1.170694,0.402238 -0.3497,0.09074 -0.692166,0.126502 -1.053762,0.10845 -0.159355,0.0019 -0.32698,0.01445 -0.477924,-0.04456 -0.130133,-0.05346 -0.252844,-0.116919 -0.334934,-0.237834 -0.05939,-0.04932 -0.169764,0.06556 -0.27849,0.01466 -0.199141,-0.01146 -0.396822,-0.03515 -0.591624,-0.07961 -0.293656,-0.07452 -0.568211,-0.201705 -0.861663,-0.272862 -0.331997,-0.08016 -0.635992,-0.218144 -0.952627,-0.34058 -0.303435,-0.09748 -0.613048,-0.179057 -0.906391,-0.299484 -0.221131,-0.121344 -0.44386,-0.237348 -0.662157,-0.362839 -0.247094,-0.158155 -0.493485,-0.317363 -0.732655,-0.487225 -0.225168,-0.181462 -0.414869,-0.405337 -0.606779,-0.620308 -0.275588,-0.303041 -0.537901,-0.61082 -0.722948,-0.980652 -0.320842,-0.522642 -0.5789,-1.083122 -0.787831,-1.659588 0,0 3.471045,-1.911654 3.471045,-1.911654 z"
       inkscape:connector-curvature="0" />
    <path
       style="fill:none;stroke-width:0.26458332"
       id="path153"
       sodipodi:type="arc"
       sodipodi:cx="38.718369"
       sodipodi:cy="30.617212"
       sodipodi:rx="8.3210678"
       sodipodi:ry="4.1237769"
       sodipodi:start="0"
       sodipodi:end="1.5707963"
       sodipodi:open="true"
       d="m 47.039436,30.617212 a 8.3210678,4.1237769 0 0 1 -8.321067,4.123777" />
    <path
       style="fill:none;stroke-width:0.26458332"
       id="path155"
       sodipodi:type="arc"
       sodipodi:cx="41.658333"
       sodipodi:cy="25.138186"
       sodipodi:rx="11.261032"
       sodipodi:ry="1.3552482"
       sodipodi:start="0"
       sodipodi:end="1.2566371"
       d="m 52.919365,25.138186 a 11.261032,1.3552482 0 0 1 -7.781182,1.288917 l -3.47985,-1.288917 z" />
    <path
       style="opacity:0.866;fill:#ffffff;fill-opacity:1;stroke-width:0.35;stroke:#00558c;stroke-opacity:1;stroke-miterlimit:4;stroke-dasharray:none;stroke-linejoin:round"
       id="path167"
       sodipodi:type="arc"
       sodipodi:cx="41.893295"
       sodipodi:cy="33.269508"
       sodipodi:rx="12.100513"
       sodipodi:ry="7.8698325"
       sodipodi:start="6.28144"
       sodipodi:end="3.1415927"
       d="m 53.99379,33.255773 a 12.100513,7.8698325 0 0 1 -6.038049,6.824627 12.100513,7.8698325 0 0 1 -12.106605,0.0069 12.100513,7.8698325 0 0 1 -6.056354,-6.817763"
       sodipodi:open="true" />
    <rect
       style="display:inline;opacity:1;fill:#00558c;fill-opacity:1;stroke:#00558c;stroke-width:0.2193002;stroke-linejoin:round;stroke-miterlimit:4;stroke-dasharray:none;stroke-opacity:1"
       id="rect5297"
       width="24.220396"
       height="0.080699816"
       x="29.784302"
       y="33.230659" />
  </g>
</svg>
